<?xml version="1.0" encoding="UTF-8"?>
<svg width="251px" height="251px" viewBox="0 0 251 251" version="1.1" xmlns="http://www.w3.org/2000/svg" xmlns:xlink="http://www.w3.org/1999/xlink">
    <!-- Generator: Sketch 52.5 (67469) - http://www.bohemiancoding.com/sketch -->
    <title>icons/picto/large/orange/sustainability</title>
    <desc>Created with Sketch.</desc>
    <g id="icons/picto/large/orange/sustainability" stroke="none" stroke-width="1" fill="none" fill-rule="evenodd">
        <g fill="#F06400" id="Group-12">
            <g transform="translate(20.000000, 18.000000)">
                <path d="M147.2093,179.6806 L139.8673,172.1666 C139.8073,172.1046 139.7433,172.0456 139.6773,171.9906 C131.8133,165.4566 126.3603,163.5666 115.3673,163.5666 L64.3963,163.5666 C57.5513,163.5666 54.8293,161.8746 48.8643,158.1676 L8.6753,133.2816 C5.0173,130.9976 3.8993,126.1626 6.1843,122.5036 C6.9583,121.2646 8.0283,120.3246 9.2423,119.7016 C9.2973,119.6796 9.3473,119.6496 9.3993,119.6236 C11.7413,118.4876 14.5953,118.5346 16.9613,120.0126 L60.2233,147.0296 C61.2963,147.6996 62.7073,147.4546 63.5003,146.4706 C63.8693,146.0116 72.7333,135.2756 88.8613,139.0686 C88.9093,139.0796 88.9583,139.0796 89.0063,139.0876 C90.2653,139.4126 91.5803,139.5996 92.9493,139.5996 L134.5893,139.5996 C135.9703,139.5996 137.0893,138.4806 137.0893,137.0996 C137.0893,135.7186 135.9703,134.5996 134.5893,134.5996 L92.9493,134.5996 C89.0043,134.5996 86.6083,132.7026 85.2933,131.1116 C83.4153,128.8386 82.8733,126.1666 83.1653,124.6456 C83.1733,124.6066 83.1803,124.5656 83.1853,124.5256 C83.6553,121.2066 85.5493,119.1016 89.1463,117.8996 C92.8343,116.6676 98.0363,116.5156 104.6063,117.4456 C116.3223,119.1056 121.3793,118.4016 126.2703,117.7206 C130.2503,117.1676 134.0113,116.6446 141.6193,117.4696 C167.3543,121.8396 172.0643,139.6196 174.8813,150.2476 C175.1133,151.1236 175.3273,151.9246 175.5393,152.6716 C168.3603,163.7506 158.6443,173.0276 147.2093,179.6806 M38.2783,157.4926 L45.1753,161.7626 L46.2253,162.4146 C52.3973,166.2516 56.1243,168.5666 64.3963,168.5666 L115.3673,168.5666 C125.2603,168.5666 129.4103,169.9796 136.3823,175.7536 L142.6383,182.1566 C131.3773,187.8026 118.6853,191.0006 105.2533,191.0006 C78.8233,191.0006 53.9793,178.3686 38.2783,157.4926 M8.7673,105.7796 C9.8733,104.0076 11.6043,102.7726 13.6403,102.3016 C15.6773,101.8326 17.7723,102.1816 19.5443,103.2886 L27.8023,108.4456 C27.8553,108.4796 27.9083,108.5156 27.9653,108.5466 L61.7353,129.6356 L70.9913,135.3446 C66.2393,137.2276 62.9163,139.9566 61.1263,141.6986 L19.6093,115.7716 C16.3193,113.7166 12.4503,113.3506 9.0073,114.4216 C7.2343,111.8976 7.0833,108.4756 8.7673,105.7796 M77.6153,133.5756 C77.5663,133.5416 77.5253,133.5006 77.4753,133.4686 L64.3723,125.3876 L31.6513,104.9536 C31.7513,103.7176 32.1443,102.5236 32.8133,101.4496 C35.0983,97.7916 39.9323,96.6726 43.5913,98.9586 L78.9243,121.0236 C78.6113,121.8836 78.3843,122.7986 78.2433,123.7666 C77.6973,126.7296 78.6483,130.3386 80.6843,133.2806 C79.6213,133.3276 78.6013,133.4316 77.6153,133.5756 M34.0853,63.1906 C38.9543,55.3516 45.0093,48.4406 52.1163,42.6016 C55.6163,58.9106 61.5183,77.0086 71.2993,86.7896 C83.3683,98.8596 95.8923,101.4136 104.2723,101.4296 L104.3563,101.4296 C113.9473,101.4296 123.1003,98.1096 129.8803,92.2566 L141.9453,104.3216 C142.4343,104.8106 143.0733,105.0546 143.7133,105.0546 C144.3533,105.0546 144.9933,104.8106 145.4803,104.3216 C146.4573,103.3456 146.4573,101.7626 145.4803,100.7866 L133.4303,88.7356 C146.1273,74.4406 149.1943,51.3846 127.9493,30.1396 C126.2533,28.4436 124.3343,26.8326 122.2093,25.3006 C126.0633,26.0936 129.8573,27.1546 133.5633,28.4856 C150.1573,34.4486 164.7563,45.8136 174.6693,60.4876 C174.6693,60.4886 174.6703,60.4886 174.6713,60.4896 C184.0223,74.3316 188.9643,90.5146 188.9643,107.2896 C188.9643,121.5176 185.3863,134.9226 179.0973,146.6686 C175.9723,135.2996 169.4433,117.0896 142.3793,112.5276 C142.3313,112.5196 142.2833,112.5126 142.2353,112.5076 C133.9593,111.6016 129.6993,112.1946 125.5803,112.7686 C120.8223,113.4316 116.3283,114.0556 105.3083,112.4956 C97.9643,111.4536 91.9913,111.6776 87.5613,113.1576 C85.1023,113.9796 83.0993,115.2036 81.5723,116.7826 L46.2393,94.7176 C43.3353,92.9036 39.8973,92.3306 36.5613,93.1006 C33.2243,93.8716 30.3873,95.8966 28.5733,98.8006 C27.9213,99.8446 27.4383,100.9616 27.1103,102.1186 L22.1923,99.0466 C22.1183,99.0006 22.0393,98.9636 21.9643,98.9186 C23.2203,86.2966 27.3963,73.9616 34.0853,63.1906 M124.4143,33.6746 C138.1313,47.3926 144.8233,68.3636 129.8973,85.2026 L120.9773,76.2826 L120.9773,48.3896 C120.9773,47.0086 119.8573,45.8896 118.4773,45.8896 C117.0963,45.8896 115.9773,47.0086 115.9773,48.3896 L115.9773,71.2826 L89.6533,44.9596 C88.6783,43.9826 87.0943,43.9826 86.1183,44.9596 C85.1423,45.9356 85.1423,47.5186 86.1183,48.4946 L112.4413,74.8176 L89.5483,74.8176 C88.1673,74.8176 87.0483,75.9376 87.0483,77.3176 C87.0483,78.6986 88.1673,79.8176 89.5483,79.8176 L117.4413,79.8176 L126.3353,88.7116 C120.4843,93.6396 112.6233,96.4306 104.3563,96.4296 L104.2833,96.4296 C96.8443,96.4156 85.6963,94.1176 74.8343,83.2546 C58.4553,66.8756 53.5493,22.8106 52.5283,11.2826 C63.8073,11.9386 106.3173,15.5786 124.4143,33.6746 M178.8133,57.6886 C168.3093,42.1416 152.8403,30.0996 135.2543,23.7806 C127.3753,20.9486 119.1243,19.2636 110.7243,18.7526 C102.4123,14.9566 92.2553,11.9066 80.2843,9.6476 C63.9083,6.5576 50.4423,6.1676 49.8773,6.1526 C49.1703,6.1276 48.4993,6.4106 48.0123,6.9156 C47.5243,7.4206 47.2713,8.1076 47.3153,8.8076 C47.3833,9.8876 48.1973,22.1846 51.0133,37.1146 C42.5893,43.6316 35.4593,51.5006 29.8373,60.5536 C22.9603,71.6286 18.5853,84.2636 17.1123,97.2236 C15.5993,97.0196 14.0473,97.0766 12.5143,97.4296 C9.1773,98.2016 6.3403,100.2266 4.5253,103.1306 C1.8723,107.3796 2.0013,112.7296 4.5993,116.8156 C3.5843,117.6626 2.6803,118.6746 1.9423,119.8556 C-1.8017,125.8526 0.0303,133.7776 6.0343,137.5276 L28.2493,151.2826 C28.2983,151.4126 28.3513,151.5416 28.4223,151.6656 C44.2503,179.0116 73.6903,196.0006 105.2533,196.0006 C136.3293,196.0006 163.7193,179.9356 179.5673,155.6786 C180.3493,155.2626 180.8393,154.4696 180.8833,153.6066 C189.1753,140.1156 193.9643,124.2526 193.9643,107.2896 C193.9643,89.5126 188.7253,72.3606 178.8133,57.6886" id="Fill-4"></path>
                <path d="M178.7972,33.9885 C179.4462,33.9885 180.0962,33.7365 180.5862,33.2345 L202.3862,10.8945 C203.3502,9.9065 203.3312,8.3235 202.3432,7.3595 C201.3552,6.3955 199.7722,6.4135 198.8082,7.4025 L177.0082,29.7425 C176.0432,30.7305 176.0632,32.3135 177.0512,33.2775 C177.5372,33.7525 178.1672,33.9885 178.7972,33.9885" id="Fill-6"></path>
                <path d="M208.1067,53.6647 L189.8497,53.2807 C188.4407,53.2357 187.3267,54.3477 187.2967,55.7277 C187.2687,57.1077 188.3637,58.2507 189.7447,58.2797 L208.0017,58.6637 C208.0187,58.6647 208.0377,58.6647 208.0547,58.6647 C209.4117,58.6647 210.5247,57.5797 210.5527,56.2167 C210.5827,54.8367 209.4867,53.6937 208.1067,53.6647" id="Fill-8"></path>
                <path d="M153.2679,23.3317 C153.2859,23.3317 153.3029,23.3317 153.3219,23.3317 C154.6769,23.3317 155.7909,22.2477 155.8199,20.8847 L156.2049,2.6277 C156.2339,1.2477 155.1379,0.1047 153.7579,0.0757 C152.3999,0.0397 151.2349,1.1427 151.2049,2.5227 L150.8209,20.7797 C150.7919,22.1597 151.8869,23.3027 153.2679,23.3317" id="Fill-10"></path>
            </g>
        </g>
    </g>
</svg>