<?xml version="1.0" encoding="UTF-8"?>
<svg width="251px" height="251px" viewBox="0 0 251 251" version="1.1" xmlns="http://www.w3.org/2000/svg" xmlns:xlink="http://www.w3.org/1999/xlink">
    <!-- Generator: Sketch 52.5 (67469) - http://www.bohemiancoding.com/sketch -->
    <title>icons/picto/large/orange/co2Calculator</title>
    <desc>Created with Sketch.</desc>
    <g id="icons/picto/large/orange/co2Calculator" stroke="none" stroke-width="1" fill="none" fill-rule="evenodd">
        <g fill="#F06400" id="Group-36">
            <g transform="translate(21.000000, 27.000000)">
                <path d="M169.7327,99.6428 C160.6797,99.6428 152.3397,96.5558 145.6917,91.3898 C145.3757,90.8028 144.8427,90.3758 144.2167,90.1858 C140.3067,86.8348 137.0637,82.7318 134.7107,78.0998 C134.7037,78.0578 134.7057,78.0158 134.6957,77.9738 C134.5987,77.5208 134.3777,77.1308 134.0857,76.8138 C131.7677,71.8088 130.4647,66.2428 130.4647,60.3748 C130.4647,53.0408 132.4997,45.8878 136.3477,39.6898 C139.8797,34.0018 144.6737,29.4448 150.2437,26.2618 C150.4127,26.1878 150.5677,26.0938 150.7127,25.9878 C156.4237,22.8288 162.9287,21.1078 169.7327,21.1078 C182.7967,21.1078 194.9707,27.5798 202.2957,38.4218 C206.6817,44.9138 209.0007,52.5058 209.0007,60.3748 C209.0007,82.0278 191.3847,99.6428 169.7327,99.6428 Z M176.9197,140.6338 L169.1667,104.6288 C169.3557,104.6308 169.5427,104.6428 169.7327,104.6428 C176.3677,104.6428 182.6607,103.1658 188.3147,100.5388 C187.9547,114.7528 184.0537,128.4658 176.9197,140.6338 Z M57.8787,70.1298 L53.3737,49.2028 L128.1387,33.1038 L129.8737,41.1598 C127.6967,45.6728 126.3057,50.5198 125.7567,55.5138 L57.8787,70.1298 Z M141.0107,94.0198 C140.9617,94.1838 140.8967,94.3438 140.8007,94.4918 C140.5337,94.9078 140.1177,95.1938 139.6337,95.2988 L128.1287,97.7758 C127.6447,97.8788 127.1487,97.7888 126.7337,97.5208 C126.3177,97.2518 126.0317,96.8378 125.9257,96.3528 L123.4497,84.8488 C123.3457,84.3648 123.4357,83.8688 123.7047,83.4528 C123.9727,83.0368 124.3867,82.7508 124.8717,82.6458 L130.7737,81.3758 C133.3837,86.1998 136.8717,90.4808 141.0107,94.0198 Z M169.7907,170.7708 L72.0717,191.8128 C69.9007,192.2798 67.6777,191.8738 65.8127,190.6698 C63.9477,189.4658 62.6627,187.6068 62.1957,185.4358 L58.9127,170.1878 C58.9867,169.6138 58.8657,169.0278 58.5557,168.5358 L33.7847,53.4948 C33.9397,52.7848 33.7817,52.0438 33.3477,51.4638 L30.1037,36.3988 C29.6367,34.2288 30.0427,32.0058 31.2467,30.1408 C32.4517,28.2748 34.3097,26.9908 36.4807,26.5228 L134.1997,5.4818 C136.3707,5.0148 138.5927,5.4198 140.4587,6.6238 C142.3237,7.8288 143.6077,9.6878 144.0767,11.8588 L146.4157,22.7238 C141.4587,25.7978 137.0937,29.8608 133.6137,34.7798 L132.5007,29.6068 C132.2097,28.2578 130.8787,27.3998 129.5297,27.6898 L49.8767,44.8418 C48.5267,45.1318 47.6687,46.4618 47.9597,47.8118 L53.5177,73.6268 C53.6567,74.2748 54.0477,74.8408 54.6057,75.2008 C55.0117,75.4638 55.4837,75.6008 55.9617,75.6008 C56.1367,75.6008 56.3127,75.5818 56.4877,75.5438 L125.4727,60.6898 C125.5127,66.3498 126.6257,71.7568 128.6087,76.7268 L123.8197,77.7588 C122.0297,78.1428 120.4967,79.2028 119.5037,80.7408 C118.5097,82.2788 118.1757,84.1118 118.5617,85.9018 L121.0397,97.4058 C121.4237,99.1958 122.4837,100.7278 124.0217,101.7218 C125.1427,102.4458 126.4207,102.8198 127.7247,102.8198 C128.2097,102.8198 128.6977,102.7678 129.1817,102.6638 L140.6867,100.1858 C142.4767,99.8008 144.0087,98.7418 145.0027,97.2038 C145.0217,97.1728 145.0377,97.1398 145.0567,97.1088 C150.6017,100.8458 157.0387,103.3498 163.9707,104.2558 L176.1677,160.8948 C177.1307,165.3758 174.2717,169.8068 169.7907,170.7708 Z M20.9327,98.3778 C20.9327,85.0398 24.0997,71.9878 30.1227,60.2358 L52.4207,163.7958 C32.5937,147.9598 20.9327,123.9758 20.9327,98.3778 Z M169.7327,16.1078 C163.1167,16.1078 156.7527,17.5588 150.9957,20.2408 L148.9627,10.8058 C148.2147,7.3298 146.1577,4.3528 143.1707,2.4238 C140.1837,0.4958 136.6257,-0.1542 133.1467,0.5938 L35.4277,21.6348 C31.9517,22.3838 28.9747,24.4408 27.0457,27.4288 C25.1177,30.4158 24.4667,33.9758 25.2157,37.4518 L28.5257,52.8198 C20.2917,66.5528 15.9327,82.2698 15.9327,98.3778 C15.9327,127.4778 30.1517,154.6088 54.0207,171.2238 L57.3067,186.4888 C58.6507,192.7248 64.1837,197.0008 70.3187,196.9998 C71.2447,196.9998 72.1837,196.9028 73.1247,196.7008 L170.8427,175.6588 C178.0187,174.1138 182.5997,167.0188 181.0547,159.8418 L178.4237,147.6258 C188.1877,133.0288 193.3557,116.0298 193.3557,98.3778 C193.3557,98.1808 193.3497,97.9858 193.3487,97.7888 C205.7467,89.9358 214.0007,76.1058 214.0007,60.3748 C214.0007,51.5038 211.3847,42.9448 206.4387,35.6228 C198.1827,23.4028 184.4617,16.1078 169.7327,16.1078 Z" id="Fill-4"></path>
                <path d="M157.0179,62.4216 C156.0379,63.9246 154.6879,64.6556 152.8929,64.6556 C150.0079,64.6556 148.1429,62.6706 148.1429,59.5976 C148.1429,56.5506 149.9909,54.5826 152.8499,54.5826 C154.4259,54.5826 155.8229,55.2146 156.6799,56.3176 L157.2049,56.9916 L160.2679,53.8946 L159.7819,53.3676 C158.0279,51.4696 155.6809,50.5076 152.8049,50.5076 C147.1979,50.5076 143.4299,54.1516 143.4299,59.5756 C143.4299,65.0516 147.2069,68.7306 152.8279,68.7306 C156.0259,68.7306 158.6239,67.4906 160.3419,65.1446 L160.7439,64.5966 L157.4959,61.6906 L157.0179,62.4216 Z" id="Fill-6"></path>
                <path d="M171.5061,64.6559 C168.7131,64.6559 166.9081,62.6789 166.9081,59.6189 C166.9081,56.5589 168.7131,54.5819 171.5061,54.5819 C174.2841,54.5819 176.0801,56.5589 176.0801,59.6189 C176.0801,62.6789 174.2841,64.6559 171.5061,64.6559 M171.5061,50.5079 C165.9381,50.5079 162.1961,54.1699 162.1961,59.6189 C162.1961,65.0689 165.9381,68.7309 171.5061,68.7309 C177.0611,68.7309 180.7931,65.0689 180.7931,59.6189 C180.7931,54.1699 177.0611,50.5079 171.5061,50.5079" id="Fill-8"></path>
                <path d="M192.2142,66.799 C194.3052,64.602 195.9042,62.728 195.9042,60.292 C195.9042,57.431 193.6212,55.508 190.2242,55.508 C186.8142,55.508 184.5232,57.57 184.5232,60.639 L184.5232,61.324 L188.9362,61.724 L188.9362,60.903 C188.9362,59.957 189.4472,59.392 190.3052,59.392 C191.0612,59.392 191.5122,59.812 191.5122,60.516 C191.5122,61.672 190.1522,63.152 189.4222,63.947 L184.3602,69.431 L184.3602,72.288 L196.0882,72.288 L196.0882,68.398 L190.6322,68.449 L192.2142,66.799 Z" id="Fill-10"></path>
                <path d="M66.4534,109.1594 L63.9764,97.6554 C63.7614,96.6554 64.3984,95.6674 65.3984,95.4514 L76.9034,92.9744 C77.0344,92.9464 77.1654,92.9334 77.2944,92.9334 C78.1484,92.9334 78.9194,93.5284 79.1054,94.3974 L81.5834,105.9024 C81.6874,106.3864 81.5974,106.8814 81.3284,107.2974 C81.0594,107.7134 80.6444,108.0004 80.1604,108.1044 L68.6564,110.5814 C68.1704,110.6854 67.6764,110.5954 67.2604,110.3264 C66.8444,110.0584 66.5574,109.6434 66.4534,109.1594 M69.7094,115.4694 L81.2134,112.9924 C83.0034,112.6074 84.5354,111.5474 85.5284,110.0104 C86.5214,108.4724 86.8564,106.6384 86.4714,104.8494 L83.9944,93.3444 C83.6084,91.5554 82.5494,90.0224 81.0124,89.0294 C79.4734,88.0354 77.6414,87.6994 75.8504,88.0874 L64.3464,90.5644 C60.6504,91.3604 58.2934,95.0134 59.0884,98.7074 L61.5654,110.2124 C61.9514,112.0024 63.0104,113.5344 64.5494,114.5274 C65.6704,115.2514 66.9474,115.6254 68.2524,115.6254 C68.7364,115.6254 69.2244,115.5744 69.7094,115.4694" id="Fill-12"></path>
                <path d="M95.1351,89.049 L106.6401,86.572 C106.7721,86.544 106.9031,86.53 107.0331,86.53 C107.3871,86.53 107.7331,86.631 108.0351,86.827 C108.4511,87.095 108.7391,87.51 108.8421,87.994 L111.3201,99.499 C111.4241,99.983 111.3331,100.479 111.0651,100.895 C110.7961,101.311 110.3811,101.597 109.8981,101.701 L109.8971,101.701 L98.3931,104.179 C97.3951,104.391 96.4051,103.757 96.1901,102.757 L93.7131,91.252 C93.4981,90.253 94.1361,89.264 95.1351,89.049 Z M91.3031,103.809 C91.9931,107.019 94.8421,109.221 98.0021,109.221 C98.4781,109.221 98.9611,109.171 99.4461,109.067 L110.9491,106.589 C112.7391,106.204 114.2721,105.145 115.2661,103.607 C116.2581,102.069 116.5931,100.236 116.2071,98.446 L113.7311,86.942 C113.3451,85.152 112.2851,83.619 110.7471,82.626 C109.2091,81.633 107.3771,81.299 105.5871,81.684 L94.0821,84.161 C90.3891,84.957 88.0301,88.61 88.8241,92.304 L91.3031,103.809 Z" id="Fill-14"></path>
                <path d="M72.9329,139.2502 L70.4549,127.7462 C70.2409,126.7462 70.8789,125.7582 71.8769,125.5422 L83.3829,123.0652 C83.5139,123.0372 83.6459,123.0232 83.7769,123.0232 C84.1289,123.0232 84.4749,123.1252 84.7789,123.3202 C85.1949,123.5892 85.4809,124.0032 85.5849,124.4882 L88.0629,135.9922 C88.2779,136.9912 87.6399,137.9802 86.6409,138.1952 L75.1349,140.6722 C74.1369,140.8882 73.1489,140.2502 72.9329,139.2502 M76.1879,145.5602 L87.6939,143.0832 C91.3869,142.2882 93.7449,138.6342 92.9509,134.9392 L90.4729,123.4362 C90.0879,121.6462 89.0289,120.1132 87.4909,119.1202 C85.9519,118.1262 84.1199,117.7922 82.3299,118.1782 L70.8249,120.6552 C67.1309,121.4502 64.7719,125.1032 65.5679,128.7982 L68.0449,140.3032 C68.4299,142.0922 69.4909,143.6252 71.0279,144.6182 C72.1499,145.3422 73.4279,145.7162 74.7319,145.7162 C75.2149,145.7162 75.7039,145.6652 76.1879,145.5602" id="Fill-16"></path>
                <path d="M102.6692,132.8469 L100.1912,121.3429 C100.0882,120.8579 100.1782,120.3629 100.4472,119.9469 C100.7152,119.5309 101.1302,119.2439 101.6142,119.1399 L113.1192,116.6619 C113.2502,116.6349 113.3812,116.6209 113.5102,116.6209 C114.3632,116.6209 115.1352,117.2169 115.3222,118.0849 L117.7992,129.5899 C118.0142,130.5889 117.3762,131.5769 116.3772,131.7919 L104.8712,134.2689 C104.3872,134.3739 103.8922,134.2839 103.4772,134.0139 C103.0612,133.7459 102.7732,133.3309 102.6692,132.8469 M105.9242,139.1569 L117.4302,136.6799 C119.2192,136.2949 120.7522,135.2349 121.7442,133.6979 C122.7372,132.1599 123.0722,130.3259 122.6872,128.5369 L120.2092,117.0319 C119.4142,113.3379 115.7602,110.9769 112.0662,111.7749 L100.5632,114.2519 C98.7722,114.6369 97.2402,115.6969 96.2462,117.2349 C95.2542,118.7729 94.9182,120.6049 95.3052,122.3949 L97.7812,133.8999 C98.1662,135.6899 99.2272,137.2219 100.7642,138.2149 C101.8852,138.9389 103.1642,139.3129 104.4672,139.3129 C104.9512,139.3129 105.4402,139.2619 105.9242,139.1569" id="Fill-18"></path>
                <path d="M132.4065,126.444 L129.9275,114.94 C129.7135,113.94 130.3515,112.952 131.3505,112.736 L142.8555,110.259 C142.9865,110.231 143.1195,110.217 143.2505,110.217 C143.6015,110.217 143.9475,110.319 144.2515,110.514 C144.6675,110.783 144.9535,111.197 145.0585,111.682 L147.5355,123.186 C147.6385,123.671 147.5495,124.166 147.2805,124.582 C147.0115,124.998 146.5975,125.285 146.1135,125.389 L134.6085,127.866 C134.1235,127.971 133.6295,127.88 133.2135,127.611 C132.7975,127.343 132.5105,126.928 132.4065,126.444 M135.6615,132.754 L147.1665,130.277 C150.8605,129.482 153.2185,125.828 152.4235,122.133 L149.9455,110.629 C149.5605,108.839 148.5015,107.307 146.9635,106.314 C145.4265,105.32 143.5925,104.986 141.8025,105.372 L130.2985,107.849 C126.6035,108.644 124.2455,112.297 125.0415,115.992 L127.5175,127.496 C127.9025,129.286 128.9635,130.819 130.5005,131.812 C131.6225,132.536 132.9005,132.91 134.2045,132.91 C134.6885,132.91 135.1765,132.859 135.6615,132.754" id="Fill-20"></path>
                <path d="M94.2874,167.4792 C94.0174,167.8952 93.6034,168.1812 93.1194,168.2862 L81.6154,170.7632 C80.6174,170.9752 79.6274,170.3412 79.4124,169.3412 L76.9344,157.8362 C76.8304,157.3522 76.9214,156.8562 77.1894,156.4402 C77.4584,156.0242 77.8734,155.7382 78.3574,155.6332 L89.8614,153.1562 C89.9924,153.1282 90.1234,153.1142 90.2524,153.1142 C91.1064,153.1142 91.8774,153.7102 92.0644,154.5782 L94.5414,166.0832 C94.6454,166.5672 94.5554,167.0632 94.2874,167.4792 Z M96.9524,153.5252 C96.1564,149.8312 92.5044,147.4732 88.8084,148.2682 L77.3054,150.7462 C75.5154,151.1302 73.9824,152.1902 72.9894,153.7282 C71.9964,155.2662 71.6614,157.0992 72.0474,158.8892 L74.5244,170.3932 C75.2154,173.6042 78.0644,175.8052 81.2244,175.8052 C81.6994,175.8052 82.1834,175.7552 82.6684,175.6512 L94.1724,173.1732 C95.9614,172.7892 97.4944,171.7292 98.4874,170.1912 C99.4804,168.6532 99.8144,166.8202 99.4304,165.0302 L96.9524,153.5252 Z" id="Fill-22"></path>
                <path d="M122.8558,161.883 L111.3518,164.36 C110.3538,164.575 109.3638,163.938 109.1488,162.938 L106.6708,151.433 C106.4568,150.434 107.0938,149.445 108.0938,149.23 L119.5978,146.753 C119.7298,146.725 119.8618,146.711 119.9928,146.711 C120.3448,146.711 120.6918,146.812 120.9948,147.008 C121.4108,147.277 121.6968,147.691 121.8008,148.175 L124.2788,159.68 C124.4938,160.679 123.8558,161.668 122.8558,161.883 Z M126.6888,147.123 C126.3038,145.333 125.2448,143.8 123.7068,142.808 C122.1688,141.814 120.3348,141.479 118.5448,141.865 L107.0418,144.342 C103.3468,145.138 100.9888,148.791 101.7838,152.486 L104.2608,163.99 C104.6468,165.78 105.7058,167.313 107.2438,168.305 C108.3658,169.03 109.6428,169.404 110.9478,169.404 C111.4318,169.404 111.9188,169.352 112.4048,169.248 L123.9088,166.771 C127.6028,165.975 129.9608,162.322 129.1668,158.628 L126.6888,147.123 Z" id="Fill-24"></path>
                <path d="M153.7601,154.673 C153.4911,155.089 153.0761,155.375 152.5931,155.48 L152.5921,155.48 L141.0881,157.957 C140.0911,158.168 139.1001,157.534 138.8851,156.535 L136.4081,145.03 C136.1931,144.031 136.8301,143.043 137.8301,142.827 L149.3341,140.35 C149.4651,140.322 149.5961,140.308 149.7251,140.308 C150.5801,140.308 151.3511,140.904 151.5371,141.772 L154.0151,153.277 C154.1191,153.761 154.0291,154.256 153.7601,154.673 Z M156.4261,140.719 C155.6301,137.025 151.9771,134.666 148.2821,135.462 L136.7781,137.94 C134.9891,138.325 133.4551,139.384 132.4631,140.922 C131.4691,142.46 131.1351,144.293 131.5201,146.083 L133.9971,157.588 C134.6891,160.798 137.5371,162.999 140.6971,162.999 C141.1731,162.999 141.6561,162.949 142.1411,162.845 L153.6451,160.367 C155.4351,159.982 156.9671,158.923 157.9601,157.385 C158.9531,155.847 159.2881,154.014 158.9031,152.224 L156.4261,140.719 Z" id="Fill-26"></path>
                <path d="M91.1653,49.4567 L64.9673,55.0977 C63.6173,55.3887 62.7583,56.7177 63.0493,58.0677 C63.3023,59.2407 64.3383,60.0417 65.4903,60.0417 C65.6653,60.0417 65.8423,60.0237 66.0193,59.9857 L92.2183,54.3447 C93.5673,54.0537 94.4263,52.7247 94.1353,51.3737 C93.8453,50.0247 92.5143,49.1657 91.1653,49.4567" id="Fill-28"></path>
                <path d="M19.3538,21.9738 C20.2098,20.8908 20.0258,19.3178 18.9418,18.4628 L5.4298,7.7928 C4.3478,6.9378 2.7758,7.1208 1.9188,8.2058 C1.0628,9.2888 1.2488,10.8618 2.3328,11.7168 L15.8428,22.3868 C16.3018,22.7488 16.8478,22.9248 17.3908,22.9248 C18.1288,22.9248 18.8618,22.5988 19.3538,21.9738" id="Fill-30"></path>
                <path d="M30.0804,15.4899 C30.1504,15.4899 30.2214,15.4869 30.2924,15.4809 C31.6684,15.3659 32.6894,14.1569 32.5744,12.7809 L31.7324,2.7439 C31.6164,1.3679 30.3964,0.3499 29.0314,0.4619 C27.6564,0.5769 26.6344,1.7859 26.7504,3.1619 L27.5924,13.1989 C27.7014,14.5039 28.7944,15.4899 30.0804,15.4899" id="Fill-32"></path>
                <path d="M12.8069,32.5226 L2.7709,33.3646 C1.3949,33.4796 0.3729,34.6886 0.4889,36.0646 C0.5979,37.3696 1.6909,38.3556 2.9769,38.3556 C3.0469,38.3556 3.1179,38.3526 3.1889,38.3466 L13.2249,37.5046 C14.6019,37.3896 15.6229,36.1806 15.5079,34.8046 C15.3929,33.4286 14.1759,32.4056 12.8069,32.5226" id="Fill-34"></path>
            </g>
        </g>
    </g>
</svg>