<svg id="Group_1222" data-name="Group 1222" xmlns="http://www.w3.org/2000/svg" xmlns:xlink="http://www.w3.org/1999/xlink" width="272" height="177" viewBox="0 0 272 177">
  <defs>
    <clipPath id="clip-path">
      <rect id="Rectangle_635" data-name="Rectangle 635" width="272" height="177" fill="none"/>
    </clipPath>
  </defs>
  <g id="Group_1219" data-name="Group 1219" clip-path="url(#clip-path)">
    <path id="Path_1728" data-name="Path 1728" d="M83.3,153.245H62.522l-4.167-19.362h2.837a1.055,1.055,0,1,0,0-2.11H56.5V126.5h32.82v5.273H74.2a1.055,1.055,0,1,0,0,2.11H87.469Zm6.326-19.362h.749a1.055,1.055,0,0,0,1.055-1.055v-7.383a1.055,1.055,0,0,0-1.055-1.056H88.7c.952-2.851,2.043-7.1,3.016-11.215V99.841a3.524,3.524,0,0,0-.918,1.534,3.167,3.167,0,0,1-1.1,1.6,4.893,4.893,0,0,1-1.315.636,8.495,8.495,0,0,0-2.118,1.059l-.108-.147a1.892,1.892,0,0,1-.474-1.343,3.766,3.766,0,0,1,.425-1.244,5.326,5.326,0,0,0,.655-2.492,5.271,5.271,0,0,0-.971-2.433,3.938,3.938,0,0,1-.575-1.163,10.33,10.33,0,0,1,.053-2.206c.107-1.105.2-2.06-.572-2.574a1.268,1.268,0,0,0-.982-.182c-.779.173-1.267.98-2.075,2.316-.318.525-.671,1.109-1.057,1.666a4.747,4.747,0,0,1-1.168.93,4.828,4.828,0,0,0-2.759,4.552,4.62,4.62,0,0,1-.295,1.508,1.823,1.823,0,0,1-.443.614,1.044,1.044,0,0,1-.11.019,2.166,2.166,0,0,0-.926.354c-.388-.424-.8-.826-1.2-1.218a12.45,12.45,0,0,1-1.737-1.907c-.382-.574-.752-1.194-1.119-1.811a13.747,13.747,0,0,0-3.1-4.07,1.055,1.055,0,0,0-1.139-.063,2.337,2.337,0,0,0-1.22,1.4,3.1,3.1,0,0,0,.624,2.377,4.685,4.685,0,0,1,.833,2.424,5.79,5.79,0,0,1-.465,1.693,8.032,8.032,0,0,0-.688,3.13,7.271,7.271,0,0,0,.858,2.742,11.557,11.557,0,0,1,.534,1.282,11.169,11.169,0,0,0-.953-.692,4.647,4.647,0,0,1-1.274-1.068,4.4,4.4,0,0,1-.424-1.462,5.689,5.689,0,0,0-.921-2.546,5.522,5.522,0,0,0-2.143-1.471,4.644,4.644,0,0,1-1.4-.847,4.459,4.459,0,0,1-.651-1.389A5.669,5.669,0,0,0,58,96.977a5.514,5.514,0,0,0-2.361-1.118,4.6,4.6,0,0,1-1.507-.61,8.585,8.585,0,0,1-1.093-1.142,8.942,8.942,0,0,0-1.794-1.738c-.011-.007-.024-.011-.035-.018-.029-.018-.059-.033-.089-.048a.965.965,0,0,0-.1-.044.892.892,0,0,0-.088-.027,1.093,1.093,0,0,0-.11-.026.858.858,0,0,0-.09-.008.869.869,0,0,0-.114,0c-.029,0-.058,0-.087.008a1.153,1.153,0,0,0-.12.02c-.011,0-.022,0-.032,0s-.034.014-.052.02a.956.956,0,0,0-.112.043.8.8,0,0,0-.082.043.924.924,0,0,0-.094.059.761.761,0,0,0-.076.062.877.877,0,0,0-.077.073c-.024.026-.046.053-.068.082s-.028.03-.04.048-.011.023-.018.033c-.019.031-.035.063-.051.1s-.03.06-.041.091-.02.065-.029.1-.018.066-.024.1-.007.066-.009.1a.9.9,0,0,0,0,.1c0,.032,0,.063.009.1a1.129,1.129,0,0,0,.019.114c0,.011,0,.022.006.033.292,1.084,6.549,24.213,8.85,30.868H55.447a1.056,1.056,0,0,0-1.056,1.056v7.383a1.056,1.056,0,0,0,1.056,1.055h.748l4.442,20.64a1.054,1.054,0,0,0,1.032.832H84.155a1.056,1.056,0,0,0,1.033-.832Zm-4.791-27.241c-.125.33-.234.666-.336,1a5.924,5.924,0,0,1-.739,1.775,5.325,5.325,0,0,1-1.3,1.026,6.431,6.431,0,0,0-2.2,2,4.19,4.19,0,0,0-.5,1.43c-.1-.1-.2-.206-.294-.306a6.85,6.85,0,0,1-1.664-2.537,10.784,10.784,0,0,1-.564-2.486,12.478,12.478,0,0,0-1.025-3.847c-.023-.046-.054-.085-.078-.13h.006c.758-.125,1.367-.451,2.055-1.692a5.906,5.906,0,0,0,.551-2.326,2.88,2.88,0,0,1,1.817-2.994,6.034,6.034,0,0,0,1.744-1.491c.264-.381.513-.774.748-1.154a8.224,8.224,0,0,0,.057,1.2,5.129,5.129,0,0,0,.871,2,3.824,3.824,0,0,1,.662,1.448,3.859,3.859,0,0,1-.473,1.5,5.012,5.012,0,0,0-.611,2.167,3.915,3.915,0,0,0,.894,2.554,1.414,1.414,0,0,1,.369.859m-6.223,14.711a4.7,4.7,0,0,1,1.183-1.6,6.923,6.923,0,0,0,1.447-1.918,7.434,7.434,0,0,0,.49-2.505,4.626,4.626,0,0,1,.352-1.809,4.772,4.772,0,0,1,1.533-1.3,6.813,6.813,0,0,0,1.834-1.531,7.618,7.618,0,0,0,1.068-2.426c.095-.314.188-.617.292-.887a.994.994,0,0,0,.095-.219,1.97,1.97,0,0,1,.308-.514,5.079,5.079,0,0,1,1.924-1.059,6.261,6.261,0,0,0,1.956-1.025c.195-.172.358-.336.508-.5-1.176,5.464-3.466,15.654-5.135,20.332H78.861c-.034-.409-.1-.807-.161-1.181a4.55,4.55,0,0,1-.085-1.855m-7.162-4.095a5.268,5.268,0,0,0-1.56-1.927,4.863,4.863,0,0,1-1.145-1.28A5.884,5.884,0,0,1,69,111.983a8.091,8.091,0,0,0,.324-2.676,8.367,8.367,0,0,0-.884-2.662,5.689,5.689,0,0,1-.663-1.935,6.371,6.371,0,0,1,.557-2.309,7.255,7.255,0,0,0,.6-2.414,5.294,5.294,0,0,0-.192-1.45l.269.449c.386.647.775,1.3,1.175,1.9a14.143,14.143,0,0,0,2.029,2.257,10.247,10.247,0,0,1,2.129,2.515,10.753,10.753,0,0,1,.819,3.206,12.376,12.376,0,0,0,.709,3,8.965,8.965,0,0,0,2.1,3.187,4.737,4.737,0,0,1,1.287,2.02,6.068,6.068,0,0,1-.99,1.22,6.338,6.338,0,0,0-1.675,2.442,6.069,6.069,0,0,0,.02,2.821c.048.288.092.567.123.835H73.605a3.2,3.2,0,0,0-1.075-1.459,2.481,2.481,0,0,1-.919-1.453,4.092,4.092,0,0,1,.028-1.29,6.126,6.126,0,0,0-.186-2.929M52.718,96.816c.032.027.061.056.094.082a6.242,6.242,0,0,0,2.241.99,3.971,3.971,0,0,1,1.5.626,4.063,4.063,0,0,1,.761,1.531,5.938,5.938,0,0,0,1.076,2.1,6.248,6.248,0,0,0,2.065,1.342,3.993,3.993,0,0,1,1.37.85,4.1,4.1,0,0,1,.516,1.639,5.853,5.853,0,0,0,.738,2.239,6.23,6.23,0,0,0,1.861,1.662,3.972,3.972,0,0,1,1.208,1.026,4.131,4.131,0,0,1,.283,1.733,6.538,6.538,0,0,0,.3,2.007c.008.021.014.043.023.063.028.072.046.146.079.217a6.431,6.431,0,0,0,1.656,1.974,3.984,3.984,0,0,1,1,1.119,4.395,4.395,0,0,1,.055,1.939,5.349,5.349,0,0,0,.051,2.133,4.513,4.513,0,0,0,1.4,2.3H60.722c-1.356-3.563-5.542-18.569-8-27.573" fill="#61b12f"/>
    <path id="Path_1729" data-name="Path 1729" d="M169.363,155.356H102.638a12.043,12.043,0,0,1-12.029-12.03V35.452a12.043,12.043,0,0,1,12.029-12.029h66.725a12.042,12.042,0,0,1,12.028,12.029V143.326a12.042,12.042,0,0,1-12.028,12.03M102.638,26.384a9.079,9.079,0,0,0-9.069,9.068V143.326a9.079,9.079,0,0,0,9.069,9.069h66.725a9.079,9.079,0,0,0,9.068-9.069V35.452a9.079,9.079,0,0,0-9.068-9.068Zm64.254,48.627h-61.66a3.572,3.572,0,0,1-3.572-3.572V37a3.571,3.571,0,0,1,3.571-3.571h61.661A3.572,3.572,0,0,1,170.464,37V71.439a3.573,3.573,0,0,1-3.572,3.572M106.333,72.05H165.79a1.713,1.713,0,0,0,1.713-1.713V38.1a1.713,1.713,0,0,0-1.713-1.713H106.333A1.713,1.713,0,0,0,104.62,38.1V70.337a1.713,1.713,0,0,0,1.713,1.713m61.349,28.01H153a1.48,1.48,0,0,1-1.481-1.481V83.3A1.48,1.48,0,0,1,153,81.819h14.681a1.48,1.48,0,0,1,1.48,1.481V98.579a1.48,1.48,0,0,1-1.48,1.481m-13.2-2.961H166.2V84.78h-11.72Zm13.2,48.382H153A1.48,1.48,0,0,1,151.52,144v-37.99a1.479,1.479,0,0,1,1.481-1.48h14.681a1.479,1.479,0,0,1,1.48,1.48V144a1.48,1.48,0,0,1-1.48,1.48m-13.2-2.96H166.2V107.492h-11.72ZM142.718,100.06H128.035a1.48,1.48,0,0,1-1.48-1.481V83.3a1.48,1.48,0,0,1,1.48-1.481h14.683A1.48,1.48,0,0,1,144.2,83.3V98.579a1.48,1.48,0,0,1-1.48,1.481m-13.2-2.961h11.722V84.78H129.515Zm-11.763,2.961H103.07a1.48,1.48,0,0,1-1.48-1.481V83.3a1.48,1.48,0,0,1,1.48-1.481h14.682a1.48,1.48,0,0,1,1.48,1.481V98.579a1.48,1.48,0,0,1-1.48,1.481m-13.2-2.961h11.72V84.78h-11.72Zm38.167,25.672H128.035a1.48,1.48,0,0,1-1.48-1.481V106.011a1.479,1.479,0,0,1,1.48-1.48h14.683a1.479,1.479,0,0,1,1.48,1.48V121.29a1.48,1.48,0,0,1-1.48,1.481m-13.2-2.961h11.722V107.492H129.515Zm-11.763,2.961H103.07a1.48,1.48,0,0,1-1.48-1.481V106.011a1.479,1.479,0,0,1,1.48-1.48h14.682a1.479,1.479,0,0,1,1.48,1.48V121.29a1.48,1.48,0,0,1-1.48,1.481m-13.2-2.961h11.72V107.492h-11.72Zm38.167,25.671H128.035a1.48,1.48,0,0,1-1.48-1.48v-15.28a1.48,1.48,0,0,1,1.48-1.48h14.683a1.48,1.48,0,0,1,1.48,1.48V144a1.48,1.48,0,0,1-1.48,1.48m-13.2-2.96h11.722V130.2H129.515Zm-11.763,2.96H103.07a1.48,1.48,0,0,1-1.48-1.48v-15.28a1.48,1.48,0,0,1,1.48-1.48h14.682a1.48,1.48,0,0,1,1.48,1.48V144a1.48,1.48,0,0,1-1.48,1.48m-13.2-2.96h11.72V130.2h-11.72Z" fill="#130834"/>
    <path id="Path_1730" data-name="Path 1730" d="M224.019,43.9c-2.364,0-3.357,1.5-4.154,2.7-.756,1.14-1.353,2.041-3,2.041a.868.868,0,0,0-.17.017.857.857,0,0,0-.169-.017c-1.646,0-2.243-.9-3-2.041a5.722,5.722,0,0,0-2.423-2.366.893.893,0,0,0-.695-.335c-.181,0-.352.012-.518.028-.166-.016-.337-.028-.518-.028a.9.9,0,0,0-.7.335,5.727,5.727,0,0,0-2.423,2.366c-.756,1.14-1.353,2.041-3,2.041a.857.857,0,0,0-.169.017.875.875,0,0,0-.17-.017c-1.646,0-2.243-.9-3-2.041-.8-1.2-1.79-2.7-4.155-2.7a.869.869,0,0,1-.352,0c-2.364,0-3.357,1.5-4.155,2.7-.756,1.14-1.353,2.041-3,2.041a.849.849,0,0,1-.338,0c-1.647,0-2.244-.9-3-2.041-.8-1.2-1.79-2.7-4.155-2.7a.869.869,0,0,1-.352,0c-2.364,0-3.357,1.5-4.155,2.7-.756,1.14-1.353,2.041-3,2.041a.9.9,0,1,0,0,1.8c2.613,0,3.661-1.579,4.5-2.848.8-1.21,1.321-1.894,2.653-1.894a.869.869,0,0,1,.352,0c1.333,0,1.851.684,2.653,1.894.841,1.269,1.888,2.848,4.5,2.848a.849.849,0,0,1,.338,0c2.613,0,3.66-1.579,4.5-2.848.8-1.21,1.321-1.894,2.653-1.894a.869.869,0,0,1,.352,0c1.333,0,1.851.684,2.654,1.895.84,1.268,1.887,2.847,4.5,2.847a.961.961,0,0,0,.17-.017.94.94,0,0,0,.169.017c2.614,0,3.661-1.579,4.5-2.848.688-1.038,1.171-1.685,2.135-1.849.963.164,1.446.811,2.134,1.849.841,1.269,1.887,2.848,4.5,2.848a.94.94,0,0,0,.169-.017.951.951,0,0,0,.17.017c2.614,0,3.66-1.579,4.5-2.848.8-1.21,1.32-1.894,2.652-1.894a.9.9,0,0,0,0-1.8" fill="#33c2ea"/>
    <path id="Path_1731" data-name="Path 1731" d="M188.188,90.854c-.014,0-.026.012-.048.008a1.212,1.212,0,0,1-.318-.029,25.24,25.24,0,0,1-9.784,3.4,1.056,1.056,0,0,1-1.12-.887c-.005-.035-.009-.062-.014-.09a1.057,1.057,0,0,1,.979-1.127,24.139,24.139,0,0,0,9.071-3.27c-.171-4.414,1.015-8.007,3.577-10.674,4.553-4.733,11.865-4.941,13.533-4.922a1.074,1.074,0,0,1,.258-.033,1.056,1.056,0,0,1,.78.349,1.038,1.038,0,0,1,.308.792,1.278,1.278,0,0,1-.046.256c-.068,1.668-.653,8.961-5.615,13.267-2.942,2.548-6.83,3.542-11.561,2.958m.866-3.322a34.132,34.132,0,0,0,7.211-6.782,1.053,1.053,0,0,1,1.642,1.318,36.929,36.929,0,0,1-7.1,6.829,11.3,11.3,0,0,0,7.548-2.586c3.707-3.215,4.608-8.606,4.833-10.919-2.319.1-7.737.723-11.138,4.26a11.471,11.471,0,0,0-3,7.88" fill="#33c2ea"/>
    <path id="Path_1732" data-name="Path 1732" d="M40.36,42.182c.007-.007.011-.017.025-.022a.775.775,0,0,1,.194-.1,17.232,17.232,0,0,1,4.4-5.546.721.721,0,0,1,.971.1l.041.047a.722.722,0,0,1-.152,1.008,16.512,16.512,0,0,0-4.041,5.21,9.561,9.561,0,0,1,1.843,7.472c-.9,4.4-5.042,7.2-6.013,7.8a.716.716,0,0,1-.137.114.725.725,0,0,1-.578.084A.706.706,0,0,1,36.45,58a.839.839,0,0,1-.068-.164c-.571-.989-2.9-5.414-1.615-9.716a9.755,9.755,0,0,1,5.593-5.941m.716,2.235A23.344,23.344,0,0,0,39.4,50.973a.719.719,0,0,1-1.43-.16,25.233,25.233,0,0,1,1.6-6.541,7.719,7.719,0,0,0-3.412,4.256c-.963,3.214.49,6.657,1.206,8.074,1.3-.9,4.2-3.25,4.872-6.537a7.841,7.841,0,0,0-1.153-5.648" fill="#33c2ea"/>
    <path id="Path_1733" data-name="Path 1733" d="M236.216,130.7a.089.089,0,0,1-.006.033.793.793,0,0,1-.094.2,17.267,17.267,0,0,1-.116,7.081.722.722,0,0,1-.833.51l-.061-.012a.721.721,0,0,1-.493-.893,16.522,16.522,0,0,0,.033-6.593,9.556,9.556,0,0,1-6.011-4.805c-1.968-4.037-.382-8.78.022-9.846a.744.744,0,0,1,.04-.174.723.723,0,0,1,.407-.418.712.712,0,0,1,.581-.012.917.917,0,0,1,.154.09c1.055.436,5.6,2.527,7.2,6.724a9.749,9.749,0,0,1-.819,8.118m-1.929-1.337a23.327,23.327,0,0,0-2.658-6.224.72.72,0,0,1,1.232-.744,25.242,25.242,0,0,1,2.715,6.162,7.724,7.724,0,0,0,.115-5.454c-1.192-3.136-4.442-4.982-5.873-5.67-.484,1.511-1.356,5.137.115,8.152a7.846,7.846,0,0,0,4.354,3.778" fill="#33c2ea"/>
    <path id="Path_1734" data-name="Path 1734" d="M124.414,45.971a8.072,8.072,0,0,1,5.761,2.134l-1.364,2.11a6.877,6.877,0,0,0-4.265-1.649,5.089,5.089,0,0,0-5.233,5.365,5.277,5.277,0,0,0,5.255,5.585,6.728,6.728,0,0,0,4.53-1.98l1.495,2.045a8.4,8.4,0,0,1-6.135,2.529,8.07,8.07,0,0,1-.044-16.139" fill="#130834"/>
    <path id="Path_1735" data-name="Path 1735" d="M140.111,45.972a7.887,7.887,0,0,1,8.07,7.959,8.07,8.07,0,1,1-16.139,0,7.886,7.886,0,0,1,8.069-7.959m0,13.544a5.291,5.291,0,0,0,5.146-5.585,5.15,5.15,0,1,0-10.291,0,5.29,5.29,0,0,0,5.145,5.585" fill="#130834"/>
    <path id="Path_1736" data-name="Path 1736" d="M149.721,66.36c0-3.281,4.256-3.807,4.256-5.614a1.271,1.271,0,0,0-1.385-1.269,2.084,2.084,0,0,0-1.641,1.076l-1.23-.82a3.37,3.37,0,0,1,3.013-1.819,2.712,2.712,0,0,1,2.96,2.691c0,2.923-4.076,3.422-4.115,5.14h4.256v1.423H149.8a6.412,6.412,0,0,1-.077-.808" fill="#130834"/>
  </g>
</svg>
