<?xml version="1.0"?>
<svg xmlns="http://www.w3.org/2000/svg" xmlns:xlink="http://www.w3.org/1999/xlink" xmlns:svgjs="http://svgjs.com/svgjs" version="1.1" width="512" height="512" x="0" y="0" viewBox="0 0 512.00003 512" style="enable-background:new 0 0 512 512" xml:space="preserve" class=""><g><path xmlns="http://www.w3.org/2000/svg" d="m436.980469 333.5h15.003906v15.003906h-15.003906zm0 0" fill="#e2541c" data-original="#000000" class=""/><path xmlns="http://www.w3.org/2000/svg" d="m406.972656 333.5h15.003906v15.003906h-15.003906zm0 0" fill="#e2541c" data-original="#000000" class=""/><path xmlns="http://www.w3.org/2000/svg" d="m466.988281 333.5h15.003907v15.003906h-15.003907zm0 0" fill="#e2541c" data-original="#000000" class=""/><path xmlns="http://www.w3.org/2000/svg" d="m106.902344 216.894531 5.449218-5.773437c1.769532-1.871094 43.3125-46.476563 43.3125-102.675782 0-56.195312-41.542968-100.804687-43.3125-102.675781l-5.449218-5.769531-5.453125 5.769531c-1.769531 1.871094-43.308594 46.480469-43.308594 102.675781 0 56.199219 41.539063 100.804688 43.308594 102.675782zm7.5-79.039062 26.070312-23.589844c-1.6875 28.632813-15.367187 54.042969-26.070312 69.800781zm0-20.234375v-84.796875c9.707031 14.296875 21.871094 36.523437 25.308594 61.898437zm-15.003906-47.792969-14.347657-11.65625c4.535157-9.910156 9.71875-18.527344 14.347657-25.347656zm-20.132813 2.972656 20.132813 16.359375v94.90625c-11.421876-16.820312-26.253907-44.628906-26.253907-75.621094 0-12.578124 2.453125-24.628906 6.121094-35.644531zm0 0" fill="#e2541c" data-original="#000000" class=""/><path xmlns="http://www.w3.org/2000/svg" d="m512 378.511719v-277.566407h-341.332031v15.003907h326.328125v247.558593h-481.992188v-15.003906h376.964844v-15.003906h-376.964844v-217.550781h28.132813v-15.003907h-43.136719v277.566407h206.300781v11.847656c0 10.011719-8.148437 18.160156-18.160156 18.160156h-28.726563v41.261719h195.046876v-41.261719h-28.722657c-10.015625 0-18.164062-8.148437-18.164062-18.160156v-11.847656zm-172.542969 45.011719v11.253906h-165.039062v-11.253906zm-41.449219-15.003907h-82.140624c3.433593-5.222656 5.4375-11.460937 5.4375-18.160156v-11.847656h28.132812v15.003906h15.003906v-15.003906h28.128906v11.847656c0 6.699219 2.003907 12.941406 5.4375 18.160156zm0 0" fill="#e2541c" data-original="#000000" class=""/><path xmlns="http://www.w3.org/2000/svg" d="m249.4375 250.980469h15.003906v30.007812h-15.003906zm0 0" fill="#e2541c" data-original="#000000" class=""/><path xmlns="http://www.w3.org/2000/svg" d="m286.945312 228.476562h15.003907v52.511719h-15.003907zm0 0" fill="#e2541c" data-original="#000000" class=""/><path xmlns="http://www.w3.org/2000/svg" d="m324.453125 198.46875h15.003906v82.519531h-15.003906zm0 0" fill="#e2541c" data-original="#000000" class=""/><path xmlns="http://www.w3.org/2000/svg" d="m361.964844 250.980469h15.003906v30.007812h-15.003906zm0 0" fill="#e2541c" data-original="#000000" class=""/><path xmlns="http://www.w3.org/2000/svg" d="m399.472656 265.984375h15.003906v15.003906h-15.003906zm0 0" fill="#e2541c" data-original="#000000" class=""/><path xmlns="http://www.w3.org/2000/svg" d="m436.980469 235.976562h15.003906v45.011719h-15.003906zm0 0" fill="#e2541c" data-original="#000000" class=""/><path xmlns="http://www.w3.org/2000/svg" d="m39.382812 235.976562h15.003907v15.003907h-15.003907zm0 0" fill="#e2541c" data-original="#000000" class=""/><path xmlns="http://www.w3.org/2000/svg" d="m69.390625 235.976562h82.519531v15.003907h-82.519531zm0 0" fill="#e2541c" data-original="#000000" class=""/><path xmlns="http://www.w3.org/2000/svg" d="m39.382812 265.984375h15.003907v15.003906h-15.003907zm0 0" fill="#e2541c" data-original="#000000" class=""/><path xmlns="http://www.w3.org/2000/svg" d="m69.390625 265.984375h82.519531v15.003906h-82.519531zm0 0" fill="#e2541c" data-original="#000000" class=""/><path xmlns="http://www.w3.org/2000/svg" d="m39.382812 295.992188h15.003907v15.003906h-15.003907zm0 0" fill="#e2541c" data-original="#000000" class=""/><path xmlns="http://www.w3.org/2000/svg" d="m69.390625 295.992188h82.519531v15.003906h-82.519531zm0 0" fill="#e2541c" data-original="#000000" class=""/><path xmlns="http://www.w3.org/2000/svg" d="m249.4375 295.992188h15.003906v15.003906h-15.003906zm0 0" fill="#e2541c" data-original="#000000" class=""/><path xmlns="http://www.w3.org/2000/svg" d="m286.945312 295.992188h15.003907v15.003906h-15.003907zm0 0" fill="#e2541c" data-original="#000000" class=""/><path xmlns="http://www.w3.org/2000/svg" d="m324.453125 295.992188h15.003906v15.003906h-15.003906zm0 0" fill="#e2541c" data-original="#000000" class=""/><path xmlns="http://www.w3.org/2000/svg" d="m361.964844 295.992188h15.003906v15.003906h-15.003906zm0 0" fill="#e2541c" data-original="#000000" class=""/><path xmlns="http://www.w3.org/2000/svg" d="m399.472656 295.992188h15.003906v15.003906h-15.003906zm0 0" fill="#e2541c" data-original="#000000" class=""/><path xmlns="http://www.w3.org/2000/svg" d="m436.980469 295.992188h15.003906v15.003906h-15.003906zm0 0" fill="#e2541c" data-original="#000000" class=""/><path xmlns="http://www.w3.org/2000/svg" d="m466.988281 130.953125h15.003907v15.003906h-15.003907zm0 0" fill="#e2541c" data-original="#000000" class=""/><path xmlns="http://www.w3.org/2000/svg" d="m436.980469 130.953125h15.003906v15.003906h-15.003906zm0 0" fill="#e2541c" data-original="#000000" class=""/><path xmlns="http://www.w3.org/2000/svg" d="m406.972656 130.953125h15.003906v15.003906h-15.003906zm0 0" fill="#e2541c" data-original="#000000" class=""/></g></svg>
